<?xml version="1.0" encoding="iso-8859-1"?>
<!-- Generator: Adobe Illustrator 16.0.0, SVG Export Plug-In . SVG Version: 6.00 Build 0)  -->
<!DOCTYPE svg PUBLIC "-//W3C//DTD SVG 1.1//EN" "http://www.w3.org/Graphics/SVG/1.1/DTD/svg11.dtd">
<svg version="1.1" id="Capa_1" xmlns="http://www.w3.org/2000/svg" xmlns:xlink="http://www.w3.org/1999/xlink" x="0px" y="0px"
	 width="310.157px" height="310.156px" viewBox="0 0 310.157 310.156" style="enable-background:new 0 0 310.157 310.156;"
	 xml:space="preserve">
<g>
	<g>
		<path d="M266.177,177.269c-0.172-15.678-11.021-19.927-24.207-19.82l-65.899,0.012c-2.91-6.404-5.83-18.135-14.242-24.815
			c-14.98-11.895-27.469-6.413-36.887-0.785c-21.281,12.704-45.342,39.316-59.986,44.25c-18.006,6.066-39.805,4.485-39.805,4.485
			v91.684c37.328,0,60.121,13.122,79.125,20.917c43.066,17.662,73.182,17.357,88.932,16.772c32.658-1.215,35.4-27.871,36.285-33.175
			c8.477-3.372,14.047-8.527,16.602-15.342c0.998-2.656,1.505-5.561,1.505-8.605c0-5.12-1.406-9.727-2.656-12.816
			c7.424-4.092,12.028-9.552,13.707-16.24c0.467-1.837,0.676-3.779,0.701-5.774c0.151-13.562-6.673-16.868-6.673-16.868
			S266.351,192.948,266.177,177.269z"/>
		<path d="M254.375,5.027l-15.627-3.849c-21.584-5.317-43.39,7.869-48.707,29.453l-1.006,4.087L282.82,57.82l1.008-4.086
			C289.144,32.152,275.96,10.345,254.375,5.027z"/>
		<path d="M181.139,66.775c-3.375,13.702,0.713,27.485,9.666,37.092l-7.265,40.098h57.525l8.067-25.729
			c12.392-4.347,22.414-14.657,25.789-28.358l4.152-16.859L185.29,49.916L181.139,66.775z"/>
	</g>
</g>
<g>
</g>
<g>
</g>
<g>
</g>
<g>
</g>
<g>
</g>
<g>
</g>
<g>
</g>
<g>
</g>
<g>
</g>
<g>
</g>
<g>
</g>
<g>
</g>
<g>
</g>
<g>
</g>
<g>
</g>
</svg>
