<?xml version="1.0" ?><!DOCTYPE svg  PUBLIC '-//W3C//DTD SVG 1.1//EN'  'http://www.w3.org/Graphics/SVG/1.1/DTD/svg11.dtd'><svg enable-background="new 0 0 512 512" height="512px" id="Layer_1" version="1.1" viewBox="0 0 512 512" width="512px" xml:space="preserve" xmlns="http://www.w3.org/2000/svg" xmlns:xlink="http://www.w3.org/1999/xlink"><path d="M492.531,442.732c0,34.171-27.702,61.872-61.873,61.872H80.916c-34.171,0-61.874-27.701-61.874-61.872  V92.987c0-34.171,27.703-61.873,61.874-61.873h349.743c34.171,0,61.873,27.701,61.873,61.873V442.732z" fill="#E07C1C"/><path d="M492.531,417.988c0,34.172-27.702,61.873-61.873,61.873H80.916c-34.171,0-61.874-27.701-61.874-61.873  V68.243c0-34.171,27.703-61.872,61.874-61.872h349.743c34.171,0,61.873,27.701,61.873,61.872V417.988z" fill="#D42127"/><path d="M492.531,417.988c0,34.172-27.702,61.873-61.873,61.873H80.916c-34.171,0-61.874-27.701-61.874-61.873  V68.243c0-34.171,27.703-61.872,61.874-61.872h349.743c34.171,0,61.873,27.701,61.873,61.872V417.988z" fill="#FFDA76"/><path d="M492.531,311.202l-99.014-99.014l-44.07-6.402l-93.662-93.662l-42.561,86.239l-95.168,13.825l1.022,0.997  l-0.022,0.003l1.022,0.997l-0.022,0.003l1.022,0.997l-0.022,0.003l1.022,0.997l-0.022,0.003l1.022,0.997l-0.022,0.003l1.022,0.997  l-0.022,0.003l1.022,0.997l-0.022,0.003l1.022,0.997l-0.022,0.003l1.022,0.997l-0.022,0.003l1.022,0.997l-0.022,0.003l1.022,0.997  l-0.022,0.003l1.022,0.997l-0.022,0.003l1.022,0.997l-0.022,0.003l1.022,0.997l-0.022,0.003l1.022,0.997l-0.022,0.003l1.022,0.997  l-0.022,0.003l1.022,0.997l-0.022,0.003l1.022,0.997l-0.022,0.003l1.022,0.997l-0.022,0.003l1.022,0.997l-0.022,0.003l1.022,0.997  l-0.022,0.003l1.022,0.997l-0.022,0.003l1.022,0.997l-0.022,0.003l1.022,0.997l-0.022,0.003l1.022,0.997l-0.022,0.003l1.022,0.997  l-0.022,0.003l1.022,0.997l-0.022,0.003l1.022,0.997l-0.022,0.003l1.022,0.997l-0.022,0.003l1.022,0.997l-0.022,0.003l1.022,0.997  l-0.022,0.003l1.022,0.997l-0.022,0.003l1.022,0.997l-0.022,0.003l1.022,0.997l-0.022,0.003l1.022,0.997l-0.022,0.003l1.022,0.997  l-0.022,0.003l1.022,0.997l-0.022,0.003l1.022,0.997l-0.022,0.003l1.022,0.997l-0.022,0.003l1.022,0.997l-0.022,0.003l1.022,0.997  l-0.022,0.003l1.022,0.997l-0.022,0.003l1.022,0.997l-0.022,0.003l1.022,0.997l-0.022,0.003l1.022,0.997l-0.022,0.003l1.022,0.997  l-0.022,0.003l1.022,0.997l-0.022,0.003l1.022,0.997l-0.022,0.003l1.022,0.997l-0.022,0.003l1.022,0.997l-0.022,0.003l1.022,0.997  l-0.022,0.003l1.022,0.997l-0.022,0.003l1.022,0.997l-0.022,0.003l1.022,0.997l-0.022,0.003l1.022,0.997l-0.022,0.003l1.022,0.997  l-0.022,0.003l1.022,0.997l-0.022,0.003l1.022,0.997l-0.022,0.003l1.022,0.997l-0.022,0.003l1.022,0.997l-0.022,0.003l1.022,0.997  l-0.022,0.003l1.022,0.997l-0.022,0.003l1.022,0.997l-0.022,0.003l1.022,0.997l-0.022,0.003l1.022,0.997l-0.022,0.003l1.022,0.997  l-0.022,0.003l1.022,0.997l-0.022,0.003l1.022,0.997l-0.022,0.003l0.613,0.599l-16.004,93.318l105.756,105.756h128.395l0.969-0.51  l0.969,0.51h23.904c34.171,0,61.873-27.702,61.873-61.873V311.202z" fill="#FAA828"/><polygon clip-rule="evenodd" fill="#FFFFFF" fill-rule="evenodd" points="255.785,112.124 298.348,198.363 393.518,212.188   324.654,279.318 340.908,374.105 255.785,329.352 170.666,374.105 186.922,279.318 118.057,212.188 213.225,198.363 "/></svg>